<svg xmlns="http://www.w3.org/2000/svg" viewBox="0 0 120 36" width="120" height="36"><defs><linearGradient id="k" x1="0" y1="0" x2="0" y2="1"><stop offset="0" stop-color="#5d6264"/><stop offset="0.45" stop-color="#2a2d2f"/><stop offset="1" stop-color="#131415"/></linearGradient><linearGradient id="s" x1="0" y1="0" x2="0" y2="1"><stop offset="0" stop-color="#a3a9ab"/><stop offset="0.45" stop-color="#646a6c"/><stop offset="1" stop-color="#383b3d"/></linearGradient><linearGradient id="f" x1="0" y1="0" x2="0" y2="1"><stop offset="0" stop-color="#d3bd92"/><stop offset="0.45" stop-color="#a58f65"/><stop offset="1" stop-color="#6c5a3c"/></linearGradient><linearGradient id="o" x1="0" y1="0" x2="0" y2="1"><stop offset="0" stop-color="#848b64"/><stop offset="0.45" stop-color="#5b6140"/><stop offset="1" stop-color="#393d27"/></linearGradient><linearGradient id="t" x1="0" y1="0" x2="0" y2="1"><stop offset="0" stop-color="#bdb68e"/><stop offset="0.45" stop-color="#8e8964"/><stop offset="1" stop-color="#5c5840"/></linearGradient><linearGradient id="w" x1="0" y1="0" x2="0" y2="1"><stop offset="0" stop-color="#b0703f"/><stop offset="0.45" stop-color="#7b4a28"/><stop offset="1" stop-color="#4a2913"/></linearGradient><linearGradient id="g" x1="0" y1="0" x2="0" y2="1"><stop offset="0" stop-color="#8cc0e6"/><stop offset="0.45" stop-color="#3d6484"/><stop offset="1" stop-color="#1a2d3e"/></linearGradient><linearGradient id="b" x1="0" y1="0" x2="0" y2="1"><stop offset="0" stop-color="#f0cf72"/><stop offset="0.45" stop-color="#b98f37"/><stop offset="1" stop-color="#75561a"/></linearGradient><linearGradient id="r" x1="0" y1="0" x2="0" y2="1"><stop offset="0" stop-color="#8a8f7c"/><stop offset="0.45" stop-color="#6a6f5c"/><stop offset="1" stop-color="#454937"/></linearGradient><filter id="rim" x="-4%" y="-15%" width="108%" height="130%"><feMorphology in="SourceAlpha" operator="dilate" radius="0.75" result="d"/><feFlood flood-color="#dfe4cf" flood-opacity="0.45"/><feComposite in2="d" operator="in" result="e"/><feMerge><feMergeNode in="e"/><feMergeNode in="SourceGraphic"/></feMerge></filter></defs><g filter="url(#rim)"><ellipse cx="28" cy="31" rx="16" ry="3.5" fill="url(#k)"/><polygon points="33.16 32.3 101.16 8.3 98.84 1.7 30.84 25.7" fill="url(#o)"/><polygon points="95.32 10.98 103.32 8.18 100.68 0.62 92.68 3.42" fill="url(#k)"/><polygon points="41.4 30.21 49.4 27.41 46.6 19.39 38.6 22.19" fill="url(#k)"/><polygon points="74.92 13.49 65.92 32.49 68.08 33.51 77.08 14.51" fill="url(#k)"/><polygon points="75.01 14.68 88.01 33.68 89.99 32.32 76.99 13.32" fill="url(#k)"/><rect x="72" y="12" width="10" height="4" rx="1" fill="url(#k)"/><rect x="78" y="6.5" width="7" height="5" rx="1" fill="url(#k)"/><rect x="84.5" y="7" width="0.9" height="4" rx="0" fill="url(#g)"/></g></svg>
