<svg xmlns="http://www.w3.org/2000/svg" viewBox="0 0 120 36" width="120" height="36"><defs><linearGradient id="k" x1="0" y1="0" x2="0" y2="1"><stop offset="0" stop-color="#5d6264"/><stop offset="0.45" stop-color="#2a2d2f"/><stop offset="1" stop-color="#131415"/></linearGradient><linearGradient id="s" x1="0" y1="0" x2="0" y2="1"><stop offset="0" stop-color="#a3a9ab"/><stop offset="0.45" stop-color="#646a6c"/><stop offset="1" stop-color="#383b3d"/></linearGradient><linearGradient id="f" x1="0" y1="0" x2="0" y2="1"><stop offset="0" stop-color="#d3bd92"/><stop offset="0.45" stop-color="#a58f65"/><stop offset="1" stop-color="#6c5a3c"/></linearGradient><linearGradient id="o" x1="0" y1="0" x2="0" y2="1"><stop offset="0" stop-color="#848b64"/><stop offset="0.45" stop-color="#5b6140"/><stop offset="1" stop-color="#393d27"/></linearGradient><linearGradient id="t" x1="0" y1="0" x2="0" y2="1"><stop offset="0" stop-color="#bdb68e"/><stop offset="0.45" stop-color="#8e8964"/><stop offset="1" stop-color="#5c5840"/></linearGradient><linearGradient id="w" x1="0" y1="0" x2="0" y2="1"><stop offset="0" stop-color="#b0703f"/><stop offset="0.45" stop-color="#7b4a28"/><stop offset="1" stop-color="#4a2913"/></linearGradient><linearGradient id="g" x1="0" y1="0" x2="0" y2="1"><stop offset="0" stop-color="#8cc0e6"/><stop offset="0.45" stop-color="#3d6484"/><stop offset="1" stop-color="#1a2d3e"/></linearGradient><linearGradient id="b" x1="0" y1="0" x2="0" y2="1"><stop offset="0" stop-color="#f0cf72"/><stop offset="0.45" stop-color="#b98f37"/><stop offset="1" stop-color="#75561a"/></linearGradient><linearGradient id="r" x1="0" y1="0" x2="0" y2="1"><stop offset="0" stop-color="#8a8f7c"/><stop offset="0.45" stop-color="#6a6f5c"/><stop offset="1" stop-color="#454937"/></linearGradient><filter id="rim" x="-4%" y="-15%" width="108%" height="130%"><feMorphology in="SourceAlpha" operator="dilate" radius="0.75" result="d"/><feFlood flood-color="#dfe4cf" flood-opacity="0.45"/><feComposite in2="d" operator="in" result="e"/><feMerge><feMergeNode in="e"/><feMergeNode in="SourceGraphic"/></feMerge></filter></defs><g filter="url(#rim)"><polygon points="4 11 28 11 32 13 32 20 24 20 14 25 4 25" fill="url(#f)"/><rect x="2.5" y="11" width="2.5" height="14" rx="1" fill="url(#k)"/><rect x="10" y="9.5" width="12" height="2" rx="1" fill="url(#f)"/><polygon points="32 13 64 13 64 21 32 21" fill="url(#f)"/><rect x="30" y="9" width="36" height="5" rx="0" fill="url(#k)"/><rect x="31" y="7.8" width="1.7" height="1.3" rx="0" fill="url(#k)"/><rect x="34" y="7.8" width="1.7" height="1.3" rx="0" fill="url(#k)"/><rect x="37" y="7.8" width="1.7" height="1.3" rx="0" fill="url(#k)"/><rect x="40" y="7.8" width="1.7" height="1.3" rx="0" fill="url(#k)"/><rect x="43" y="7.8" width="1.7" height="1.3" rx="0" fill="url(#k)"/><rect x="46" y="7.8" width="1.7" height="1.3" rx="0" fill="url(#k)"/><rect x="49" y="7.8" width="1.7" height="1.3" rx="0" fill="url(#k)"/><rect x="52" y="7.8" width="1.7" height="1.3" rx="0" fill="url(#k)"/><rect x="55" y="7.8" width="1.7" height="1.3" rx="0" fill="url(#k)"/><rect x="58" y="7.8" width="1.7" height="1.3" rx="0" fill="url(#k)"/><rect x="61" y="7.8" width="1.7" height="1.3" rx="0" fill="url(#k)"/><rect x="64" y="9.5" width="26" height="9" rx="1" fill="url(#f)"/><rect x="68" y="12.5" width="3" height="3" rx="0" fill="url(#k)"/><rect x="73" y="12.5" width="3" height="3" rx="0" fill="url(#k)"/><rect x="78" y="12.5" width="3" height="3" rx="0" fill="url(#k)"/><rect x="83" y="12.5" width="3" height="3" rx="0" fill="url(#k)"/><rect x="38" y="2.5" width="5" height="5.5" rx="1.5" fill="url(#k)"/><rect x="42" y="3.2" width="12" height="4" rx="1.5" fill="url(#k)"/><rect x="53" y="1.8" width="8" height="7" rx="2" fill="url(#k)"/><rect x="60.2" y="2.4" width="0.9" height="5.8" rx="0" fill="url(#g)"/><rect x="43" y="7" width="3" height="2" rx="0" fill="url(#k)"/><rect x="51" y="7" width="3" height="2" rx="0" fill="url(#k)"/><polygon points="36 21 43 21 41 31 34 31" fill="url(#k)"/><rect x="43" y="21" width="6" height="1.3" rx="0" fill="url(#k)"/><polygon points="48 21 57 21 57.5 31 48.5 31" fill="url(#f)"/><rect x="48" y="30.5" width="10.5" height="1.8" rx="0" fill="url(#k)"/><rect x="90" y="12.6" width="6" height="3" rx="0" fill="url(#s)"/><rect x="94" y="11" width="22" height="6.2" rx="2" fill="url(#k)"/><rect x="97" y="11" width="1" height="6.2" rx="0" fill="url(#s)"/></g></svg>
